<?xml version="1.0" encoding="utf-8"?><!-- Uploaded to: SVG Repo, www.svgrepo.com, Generator: SVG Repo Mixer Tools -->
<svg fill="#000000" width="800px" height="800px" viewBox="0 0 24 24" id="clipboard-delete-2" data-name="Flat Color" xmlns="http://www.w3.org/2000/svg" class="icon flat-color"><path id="primary" d="M18,15V4a2,2,0,0,0-2-2H4A2,2,0,0,0,2,4V20a2,2,0,0,0,2,2H14a1,1,0,0,0,1-1V18a2,2,0,0,1,2-2h0A1,1,0,0,0,18,15Z" style="fill: rgb(0, 0, 0);"></path><path id="secondary" d="M13,15a1,1,0,0,1-1,1H6a1,1,0,0,1,0-2h6A1,1,0,0,1,13,15Zm1-5H6a1,1,0,0,0,0,2h8a1,1,0,0,0,0-2Zm0-8H6V4A2,2,0,0,0,8,6h4a2,2,0,0,0,2-2Zm8,17a1,1,0,0,0-1-1H17a1,1,0,0,0,0,2h4A1,1,0,0,0,22,19Z" style="fill: rgb(44, 169, 188);"></path></svg>